<mxfile host="65bd71144e">
    <diagram id="4f-JZ04ZzW_WCCTG0lLz" name="Page-1">
        <mxGraphModel dx="1380" dy="1648" grid="1" gridSize="10" guides="1" tooltips="1" connect="1" arrows="1" fold="1" page="0" pageScale="1" pageWidth="850" pageHeight="1100" background="#ffffff" math="0" shadow="0">
            <root>
                <mxCell id="0"/>
                <mxCell id="1" parent="0"/>
                <mxCell id="3" value="public class Patient{&#10;&#10;&#10;&#9;int pid;&#10;&#9;String email;&#10;&#9;String password;&#10;&#9;String name;&#10;&#9;String address;&#10;&#9;int phone;&#10;&#9;Datetime lastlogindate;&#10;&#9;List[Appointment] appointments;&#10;&#9;&#10;}" style="shape=ext;double=1;rounded=0;whiteSpace=wrap;html=1;fontFamily=Verdana;fillColor=#60a917;fontColor=#1A1A1A;strokeColor=#2D7600;align=left;" parent="1" vertex="1">
                    <mxGeometry x="-70" y="-60" width="210" height="210" as="geometry"/>
                </mxCell>
                <mxCell id="8" value="public class Appointment{&#10;&#9;&#10;&#9;int aid;&#10;&#9;From_to_time appointment_time;&#10;&#9;Patient patient;&#10;&#9;Clinic clinic;&#10;&#9;Docter docter;&#9;&#10;&#9;checkAvailability(...){&#9;&#10;&#9;&#9;this.docter = docter;&#10;&#9;}&#10;&#9;&#10;}" style="shape=ext;double=1;rounded=0;whiteSpace=wrap;html=1;fontFamily=Verdana;fillColor=#ffcd28;strokeColor=#d79b00;gradientColor=#ffa500;align=left;fontColor=#330000;" parent="1" vertex="1">
                    <mxGeometry x="230" y="-100" width="230" height="250" as="geometry"/>
                </mxCell>
                <mxCell id="9" value="public class Clinic {&#10;&#10;&#10;&#9;int cid;&#10;&#9;String name;&#10;&#9;String address;&#10;&#9;List[Appointment] appointments;&#10;&#9;List[Docter] docters;&#10;&#9;&#10;}" style="shape=ext;double=1;rounded=0;whiteSpace=wrap;html=1;fontFamily=Verdana;fontColor=#1A1A1A;fillColor=#1ba1e2;strokeColor=#006EAF;align=left;" parent="1" vertex="1">
                    <mxGeometry x="-40" y="240" width="215" height="170" as="geometry"/>
                </mxCell>
                <mxCell id="23" value="" style="edgeStyle=none;html=1;strokeColor=#66B2FF;strokeWidth=3;fontSize=15;fontColor=#3333FF;" parent="1" source="10" target="12" edge="1">
                    <mxGeometry relative="1" as="geometry"/>
                </mxCell>
                <mxCell id="10" value="public class Docter{&#10;&#10;&#10;&#9;int did;&#10;&#9;String name;&#10;&#9;String email;&#10;&#9;list&lt;from_to_time&gt; avl_times;&#10;&#9;int phone;&#10;&#9;Datetime lastlogindate;&#10;&#9;List[Appointment] appointments;&#10;&#9;List[Clinic] clinics;&#10;&#9;&#10;}&lt;/from_to_time&gt;" style="shape=ext;double=1;rounded=0;whiteSpace=wrap;html=1;fontFamily=Verdana;fillColor=#b1ddf0;strokeColor=#10739e;align=left;fontColor=#1A1A1A;" parent="1" vertex="1">
                    <mxGeometry x="360" y="230" width="210" height="210" as="geometry"/>
                </mxCell>
                <mxCell id="11" value="" style="endArrow=classic;startArrow=classic;html=1;strokeColor=#3333FF;strokeWidth=4;" parent="1" edge="1">
                    <mxGeometry width="100" height="100" relative="1" as="geometry">
                        <mxPoint x="180" y="330" as="sourcePoint"/>
                        <mxPoint x="350" y="325" as="targetPoint"/>
                        <Array as="points"/>
                    </mxGeometry>
                </mxCell>
                <mxCell id="12" value="&lt;font style=&quot;font-size: 15px;&quot; color=&quot;#3333ff&quot;&gt;Works&lt;/font&gt;rk" style="text;strokeColor=none;fillColor=none;html=1;fontSize=24;fontStyle=1;verticalAlign=middle;align=center;" parent="1" vertex="1">
                    <mxGeometry x="230" y="290" width="100" height="40" as="geometry"/>
                </mxCell>
                <mxCell id="14" value="&lt;font style=&quot;font-size: 15px;&quot; color=&quot;#00cc00&quot;&gt;Book Appointment&lt;/font&gt;" style="text;strokeColor=none;fillColor=none;html=1;fontSize=24;fontStyle=1;verticalAlign=middle;align=center;fontColor=#3333FF;" parent="1" vertex="1">
                    <mxGeometry x="70" y="-130" width="100" height="40" as="geometry"/>
                </mxCell>
                <mxCell id="16" value="" style="edgeStyle=segmentEdgeStyle;endArrow=classic;html=1;curved=0;rounded=0;endSize=8;startSize=8;strokeColor=#009900;fontSize=15;fontColor=#00CC00;exitX=0.619;exitY=0.003;exitDx=0;exitDy=0;exitPerimeter=0;strokeWidth=4;" parent="1" source="3" edge="1">
                    <mxGeometry width="50" height="50" relative="1" as="geometry">
                        <mxPoint x="50" y="-70" as="sourcePoint"/>
                        <mxPoint x="220" y="-90" as="targetPoint"/>
                        <Array as="points">
                            <mxPoint x="60" y="-90"/>
                        </Array>
                    </mxGeometry>
                </mxCell>
                <mxCell id="18" value="" style="edgeStyle=segmentEdgeStyle;endArrow=classic;html=1;curved=0;rounded=0;endSize=8;startSize=8;strokeColor=#66B2FF;fontSize=15;fontColor=#00CC00;strokeWidth=4;" parent="1" edge="1">
                    <mxGeometry width="50" height="50" relative="1" as="geometry">
                        <mxPoint x="350" y="260" as="sourcePoint"/>
                        <mxPoint x="270" y="160" as="targetPoint"/>
                    </mxGeometry>
                </mxCell>
                <mxCell id="20" value="Assign" style="text;strokeColor=none;fillColor=none;html=1;fontSize=15;fontStyle=1;verticalAlign=middle;align=center;fontColor=#3333FF;" parent="1" vertex="1">
                    <mxGeometry x="250" y="190" width="100" height="40" as="geometry"/>
                </mxCell>
                <mxCell id="21" value="" style="edgeStyle=elbowEdgeStyle;elbow=horizontal;endArrow=classic;html=1;curved=0;rounded=0;endSize=8;startSize=8;strokeColor=#66B2FF;fontSize=15;fontColor=#3333FF;strokeWidth=4;" parent="1" edge="1">
                    <mxGeometry width="50" height="50" relative="1" as="geometry">
                        <mxPoint x="20" y="230" as="sourcePoint"/>
                        <mxPoint x="230" y="140" as="targetPoint"/>
                        <Array as="points">
                            <mxPoint x="160" y="200"/>
                        </Array>
                    </mxGeometry>
                </mxCell>
                <mxCell id="22" value="Assign" style="text;strokeColor=none;fillColor=none;html=1;fontSize=15;fontStyle=1;verticalAlign=middle;align=center;fontColor=#3333FF;" parent="1" vertex="1">
                    <mxGeometry x="70" y="170" width="100" height="40" as="geometry"/>
                </mxCell>
                <mxCell id="24" value="class From_to_time{&#10;&#10;&#10;&#9;Datetime time_from;&#10;&#9;Datetime time_to;&#10;&#9;&#10;}" style="shape=ext;double=1;rounded=0;whiteSpace=wrap;html=1;fontSize=15;fillColor=#e1d5e7;strokeColor=#9673a6;align=left;fontColor=#1A1A1A;" parent="1" vertex="1">
                    <mxGeometry x="490" y="50" width="160" height="140" as="geometry"/>
                </mxCell>
                <mxCell id="25" value="" style="rounded=0;whiteSpace=wrap;html=1;fillColor=#60a917;fontColor=#ffffff;strokeColor=#2D7600;" parent="1" vertex="1">
                    <mxGeometry x="-100" y="-340" width="120" height="60" as="geometry"/>
                </mxCell>
                <mxCell id="26" value="" style="rounded=0;whiteSpace=wrap;html=1;fillColor=#1ba1e2;fontColor=#ffffff;strokeColor=#006EAF;" parent="1" vertex="1">
                    <mxGeometry x="90" y="-340" width="120" height="60" as="geometry"/>
                </mxCell>
                <mxCell id="27" value="" style="rounded=0;whiteSpace=wrap;html=1;fillColor=#0050ef;fontColor=#ffffff;strokeColor=#001DBC;" parent="1" vertex="1">
                    <mxGeometry x="260" y="-340" width="220" height="60" as="geometry"/>
                </mxCell>
                <mxCell id="28" value="" style="rounded=0;whiteSpace=wrap;html=1;fillColor=#ffe6cc;strokeColor=#d79b00;" parent="1" vertex="1">
                    <mxGeometry x="170" y="-230" width="170" height="60" as="geometry"/>
                </mxCell>
                <mxCell id="29" value="Patient" style="text;strokeColor=none;fillColor=none;html=1;fontSize=20;fontStyle=1;verticalAlign=middle;align=center;fontColor=#1A1A1A;" parent="1" vertex="1">
                    <mxGeometry x="-90" y="-330" width="100" height="40" as="geometry"/>
                </mxCell>
                <mxCell id="30" value="Check Clinic" style="text;strokeColor=none;fillColor=none;html=1;fontSize=17;fontStyle=1;verticalAlign=middle;align=center;fontColor=#1A1A1A;" parent="1" vertex="1">
                    <mxGeometry x="100" y="-330" width="100" height="40" as="geometry"/>
                </mxCell>
                <mxCell id="31" value="Check Docter Availability" style="text;strokeColor=none;fillColor=none;html=1;fontSize=17;fontStyle=1;verticalAlign=middle;align=center;fontColor=#1A1A1A;" parent="1" vertex="1">
                    <mxGeometry x="320" y="-345" width="100" height="65" as="geometry"/>
                </mxCell>
                <mxCell id="32" value="Book Appointment" style="text;strokeColor=none;fillColor=none;html=1;fontSize=17;fontStyle=1;verticalAlign=middle;align=center;fontColor=#1A1A1A;" parent="1" vertex="1">
                    <mxGeometry x="200" y="-220" width="100" height="40" as="geometry"/>
                </mxCell>
                <mxCell id="33" value="" style="edgeStyle=segmentEdgeStyle;endArrow=classic;html=1;curved=0;rounded=0;endSize=8;startSize=8;fontSize=17;fontColor=#1A1A1A;exitX=0.75;exitY=1;exitDx=0;exitDy=0;strokeColor=#000000;" parent="1" source="31" edge="1">
                    <mxGeometry width="50" height="50" relative="1" as="geometry">
                        <mxPoint x="240" y="-210" as="sourcePoint"/>
                        <mxPoint x="350" y="-190" as="targetPoint"/>
                        <Array as="points">
                            <mxPoint x="395" y="-190"/>
                        </Array>
                    </mxGeometry>
                </mxCell>
                <mxCell id="34" value="" style="edgeStyle=segmentEdgeStyle;endArrow=classic;html=1;curved=0;rounded=0;endSize=8;startSize=8;strokeColor=#000000;fontSize=17;fontColor=#1A1A1A;exitX=1;exitY=0.5;exitDx=0;exitDy=0;entryX=0;entryY=0.5;entryDx=0;entryDy=0;" parent="1" source="25" target="26" edge="1">
                    <mxGeometry width="50" height="50" relative="1" as="geometry">
                        <mxPoint x="90" y="-210" as="sourcePoint"/>
                        <mxPoint x="140" y="-260" as="targetPoint"/>
                    </mxGeometry>
                </mxCell>
                <mxCell id="35" value="" style="edgeStyle=segmentEdgeStyle;endArrow=classic;html=1;curved=0;rounded=0;endSize=8;startSize=8;strokeColor=#000000;fontSize=17;fontColor=#1A1A1A;exitX=1.022;exitY=0.644;exitDx=0;exitDy=0;exitPerimeter=0;entryX=-0.018;entryY=0.633;entryDx=0;entryDy=0;entryPerimeter=0;" parent="1" source="26" target="27" edge="1">
                    <mxGeometry width="50" height="50" relative="1" as="geometry">
                        <mxPoint x="90" y="-210" as="sourcePoint"/>
                        <mxPoint x="140" y="-260" as="targetPoint"/>
                    </mxGeometry>
                </mxCell>
                <mxCell id="36" value="Low Level Design" style="text;strokeColor=none;fillColor=none;html=1;fontSize=28;fontStyle=1;verticalAlign=middle;align=center;fontColor=#000000;" vertex="1" parent="1">
                    <mxGeometry x="80" y="-440" width="100" height="40" as="geometry"/>
                </mxCell>
            </root>
        </mxGraphModel>
    </diagram>
</mxfile>